HIERARCHY
ROOT Hips
{
  OFFSET 17.9996 39.7786 -6.99524
  CHANNELS 6 Xposition Yposition Zposition Zrotation Xrotation Yrotation
  JOINT LeftHip
  {
    OFFSET 3.43 0 -1.77636e-015
    CHANNELS 6 Xposition Yposition Zposition Zrotation Xrotation Yrotation
    JOINT LeftKnee
    {
      OFFSET 4.9738e-014 -18.47 1.42109e-014
      CHANNELS 6 Xposition Yposition Zposition Zrotation Xrotation Yrotation
      JOINT LeftAnkle
      {
        OFFSET -1.06581e-014 -17.95 -2.22045e-015
        CHANNELS 6 Xposition Yposition Zposition Zrotation Xrotation Yrotation
        End Site
        {
          OFFSET 0 -3.12 0
        }
      }
    }
  }
  JOINT RightHip
  {
    OFFSET -3.43 -1.84741e-013 3.01981e-014
    CHANNELS 6 Xposition Yposition Zposition Zrotation Xrotation Yrotation
    JOINT RightKnee
    {
      OFFSET 2.4869e-014 -18.47 -8.43769e-015
      CHANNELS 6 Xposition Yposition Zposition Zrotation Xrotation Yrotation
      JOINT RightAnkle
      {
        OFFSET 1.06581e-014 -17.95 1.42109e-014
        CHANNELS 6 Xposition Yposition Zposition Zrotation Xrotation Yrotation
        End Site
        {
          OFFSET 0 -3.12 0
        }
      }
    }
  }
  JOINT Chest
  {
    OFFSET 0 4.57 8.88178e-015
    CHANNELS 6 Xposition Yposition Zposition Zrotation Xrotation Yrotation
    JOINT Chest2
    {
      OFFSET 3.55271e-014 6.57 7.10543e-015
      CHANNELS 6 Xposition Yposition Zposition Zrotation Xrotation Yrotation
      JOINT LeftCollar
      {
        OFFSET 1.06 4.19 1.76
        CHANNELS 6 Xposition Yposition Zposition Zrotation Xrotation Yrotation
        JOINT LeftShoulder
        {
          OFFSET 5.81 -1.13687e-013 -4.88498e-014
          CHANNELS 6 Xposition Yposition Zposition Zrotation Xrotation Yrotation
          JOINT LeftElbow
          {
            OFFSET 7.10543e-015 -12.08 -8.17124e-014
            CHANNELS 6 Xposition Yposition Zposition Zrotation Xrotation Yrotation
            JOINT LeftWrist
            {
              OFFSET 1.42109e-014 -9.82 -2.66454e-015
              CHANNELS 6 Xposition Yposition Zposition Zrotation Xrotation Yrotation
              End Site
              {
                OFFSET 0 -7.37 0
              }
            }
          }
        }
      }
      JOINT RightCollar
      {
        OFFSET -1.06 4.19 1.76
        CHANNELS 6 Xposition Yposition Zposition Zrotation Xrotation Yrotation
        JOINT RightShoulder
        {
          OFFSET -6.06 -2.13163e-014 -1.90958e-014
          CHANNELS 6 Xposition Yposition Zposition Zrotation Xrotation Yrotation
          JOINT RightElbow
          {
            OFFSET -7.10543e-014 -11.08 7.10543e-014
            CHANNELS 6 Xposition Yposition Zposition Zrotation Xrotation Yrotation
            JOINT RightWrist
            {
              OFFSET 0 -9.82 1.77636e-015
              CHANNELS 6 Xposition Yposition Zposition Zrotation Xrotation Yrotation
              End Site
              {
                OFFSET 0 -7.14001 0
              }
            }
          }
        }
      }
      JOINT Neck
      {
        OFFSET 3.55271e-015 4.05 1.15463e-014
        CHANNELS 6 Xposition Yposition Zposition Zrotation Xrotation Yrotation
        JOINT Head
        {
          OFFSET 0 5.19 1.77636e-015
          CHANNELS 6 Xposition Yposition Zposition Zrotation Xrotation Yrotation
          End Site
          {
            OFFSET 0 4.14001 0
          }
        }
      }
    }
  }
}
MOTION
Frames:	7
Frame Time:	0.0333333
-24.955 37.7878 59.739 1.41361 7.97307 -150.051 3.43 4.39403e-013 1.8757e-012 16.2324 -23.0258 8.38332 -7.99408e-013 -18.47 1.42109e-014 0.000411221 46.0699 -1.19552 -1.06581e-014 -17.95 -2.22045e-015 -6.61501 -7.84428 -0.453856 -3.43 -3.5246e-013 -1.32929e-013 -14.6516 -6.69619 -7.21475 2.4869e-014 -18.47 -8.43769e-015 -0.000113394 17.7027 -1.63626 1.06581e-014 -17.95 -4.12553e-012 11.6599 -1.45796 0.14884 0 4.57 8.55677e-014 0.543397 18.4905 -3.06155 3.55271e-014 6.57 7.10543e-015 0.598943 16.789 -2.95423 1.06 4.19 1.76 2.71374 0.413819 -4.01912 5.81 1.98505e-012 1.70813e-013 19.8018 -38.2895 -17.4549 -2.99879e-013 -12.08 -1.31838e-013 -8.2441 -59.4518 -2.60696 1.42109e-014 -9.82 -2.66454e-015 2.25129 18.4782 -0.367658 -1.06 4.19 1.76 6.6066 0.938697 2.44925 -6.06 1.45841e-012 1.65325e-013 -80.778 -59.3921 -28.7232 -3.00727e-015 -11.08 1.09354e-014 4.11464 -45.5973 -50.7336 0 -9.82 1.77636e-015 -25.3729 9.98842 2.24589 3.55271e-015 4.05 1.15463e-014 6.26639 3.83543 -18.0409 0 5.19 1.77636e-015 12.5889 4.85091 -15.5753 
-24.6022 37.8824 59.7156 0.75724 7.16647 -149.364 3.43 4.43854e-013 1.83338e-012 15.2726 -23.8865 8.12917 -8.71511e-013 -18.47 1.42109e-014 0.000105524 45.2773 -1.07208 -1.06581e-014 -17.95 -2.22045e-015 -6.68266 -5.59677 -0.327858 -3.43 -3.63838e-013 -1.19087e-013 -15.2362 -6.97098 -7.44647 2.4869e-014 -18.47 -8.43769e-015 6.53054e-005 17.6474 -1.6227 1.06581e-014 -17.95 -4.13164e-012 11.7564 -1.56357 0.161032 0 4.57 7.01301e-014 1.224 19.2218 -2.35267 3.55271e-014 6.57 7.10543e-015 1.16627 17.4647 -2.27277 1.06 4.19 1.76 1.09041 0.538759 -2.85939 5.81 1.99119e-012 1.77559e-013 20.6369 -36.1252 -14.8273 -3.11087e-013 -12.08 -1.0205e-014 -7.68085 -58.8409 -1.99093 1.42109e-014 -9.82 -2.66454e-015 4.26318 19.4051 -0.727124 -1.06 4.19 1.76 5.71859 0.933239 3.34051 -6.06 1.43646e-012 4.39322e-014 -78.3404 -57.6933 -34.653 4.2218e-014 -11.08 -3.40139e-014 4.51671 -43.5032 -43.9305 0 -9.82 1.77636e-015 -20.5025 13.1778 2.39499 3.55271e-015 4.05 1.15463e-014 5.58961 3.98733 -18.4517 0 5.19 1.77636e-015 13.9986 4.1735 -16.4994 
-24.2836 37.9464 59.8713 0.0929632 6.85375 -149.508 3.43 4.3999e-013 1.79067e-012 13.624 -25.0837 7.64785 -9.43012e-013 -18.47 1.42109e-014 0.000165926 45.2781 -0.932218 -1.06581e-014 -17.95 -2.22045e-015 -5.91865 -3.0907 -0.159685 -3.43 -3.70881e-013 -1.05282e-013 -15.6752 -7.93076 -7.63297 2.4869e-014 -18.47 -8.43769e-015 0.000198868 18.5161 -1.46511 1.06581e-014 -17.95 -4.13771e-012 11.0766 -1.4766 0.143087 0 4.57 5.63445e-014 1.9766 20.843 -0.848047 3.55271e-014 6.57 7.10543e-015 1.76784 18.9564 -0.897113 1.06 4.19 1.76 -0.16798 0.609359 -2.64931 5.81 1.99685e-012 1.84246e-013 21.394 -34.8697 -11.5265 -3.16503e-013 -12.08 1.76365e-013 -6.48132 -59.3201 -2.44655 1.42109e-014 -9.82 -2.66454e-015 2.5884 20.3718 -0.466143 -1.06 4.19 1.76 3.50803 0.797797 3.2288 -6.06 1.41241e-012 -2.47337e-013 -78.3819 -55.4935 -41.3605 1.06185e-013 -11.08 -7.81155e-014 4.23495 -42.7487 -40.0956 0 -9.82 1.77636e-015 -17.0506 14.975 2.2598 3.55271e-015 4.05 1.15463e-014 4.65329 4.24694 -18.7849 0 5.19 1.77636e-015 16.2981 1.5822 -17.7812 
-24.1017 37.8396 60.0979 0.113964 6.99002 -150.59 3.43 4.28503e-013 1.74757e-012 11.4479 -26.3118 6.96755 -1.01391e-012 -18.47 1.42109e-014 -0.000210382 45.7008 -0.810951 -1.06581e-014 -17.95 -2.22045e-015 -3.99117 -3.03404 -0.104225 -3.43 -3.7301e-013 -9.15269e-014 -15.5997 -9.79031 -7.64335 2.4869e-014 -18.47 -8.43769e-015 1.81906e-005 20.5905 -1.31062 1.06581e-014 -17.95 -4.14372e-012 10.5731 -1.62155 0.150159 0 4.57 4.42546e-014 3.02968 22.8345 0.896796 3.55271e-014 6.57 7.10543e-015 2.66083 20.7854 0.820625 1.06 4.19 1.76 -0.396153 0.621877 -2.80737 5.81 2.00201e-012 1.90875e-013 21.925 -33.9846 -8.70608 -3.15139e-013 -12.08 1.44284e-013 -5.28209 -59.9222 -1.03248 1.42109e-014 -9.82 -2.66454e-015 1.95285 18.8685 -0.325658 -1.06 4.19 1.76 2.45944 0.704571 1.46639 -6.06 1.38627e-012 -1.15187e-013 -83.2034 -54.6742 -45.6402 6.05771e-014 -11.08 -1.22559e-013 4.07035 -42.5959 -40.6385 0 -9.82 1.77636e-015 -20.4865 14.3409 2.60538 3.55271e-015 4.05 1.15463e-014 4.12923 4.14844 -19.6351 0 5.19 1.77636e-015 16.8326 -1.70459 -18.5454 
-24.0341 37.7276 60.4035 1.02226 5.47154 -152.207 3.43 4.10085e-013 1.70408e-012 10.0832 -27.5386 6.48744 -1.08421e-012 -18.47 1.42109e-014 8.65478e-005 44.436 -0.76626 -1.06581e-014 -17.95 -2.22045e-015 -3.03607 -4.95839 -0.132531 -3.43 -3.69649e-013 -7.78332e-014 -15.7304 -13.2158 -7.83874 2.4869e-014 -18.47 -8.43769e-015 -0.00016157 21.8295 -1.11139 1.06581e-014 -17.95 -4.14968e-012 10.1148 -1.24301 0.110025 0 4.57 3.39041e-014 3.4219 23.6227 1.74591 3.55271e-014 6.57 7.10543e-015 2.98563 21.5045 1.66926 1.06 4.19 1.76 -1.09295 0.663609 -3.54557 5.81 2.00668e-012 1.97446e-013 24.4997 -31.4416 -3.66345 -3.06007e-013 -12.08 2.94644e-014 -4.14617 -60.6134 0.0128297 1.42109e-014 -9.82 -2.66454e-015 1.29333 16.5924 -0.185459 -1.06 4.19 1.76 1.39208 0.643933 -0.186623 -6.06 1.35805e-012 1.43282e-013 -86.2148 -56.1198 -48.0083 -2.47346e-014 -11.08 -1.77692e-013 4.08893 -42.361 -41.207 0 -9.82 1.77636e-015 -23.818 14.1493 2.99841 3.55271e-015 4.05 1.15463e-014 4.16861 3.97944 -19.8507 0 5.19 1.77636e-015 16.6412 -2.71713 -18.51 
-24.0645 37.691 60.5794 1.6651 4.76675 -152.918 3.43 3.85428e-013 1.6602e-012 10.5921 -28.2062 6.66628 -1.15391e-012 -18.47 1.42109e-014 1.26743e-005 44.4216 -0.796514 -1.06581e-014 -17.95 -2.22045e-015 -3.27635 -5.62656 -0.161344 -3.43 -3.6022e-013 -6.42126e-014 -15.5822 -14.722 -7.84714 2.4869e-014 -18.47 -8.43769e-015 0.00210302 21.8215 -0.940925 1.06581e-014 -17.95 -4.15558e-012 9.70317 -0.725845 0.0622281 0 4.57 2.53368e-014 3.42963 24.7485 0.760746 3.55271e-014 6.57 7.10543e-015 3.02247 22.5228 0.785454 1.06 4.19 1.76 -1.63531 0.685714 -2.34656 5.81 2.01085e-012 2.03959e-013 27.252 -27.958 0.601814 -2.88117e-013 -12.08 -8.34616e-014 -3.33843 -60.42 2.07476 1.42109e-014 -9.82 -2.66454e-015 3.54363 14.8437 -0.464474 -1.06 4.19 1.76 1.1045 0.632382 -0.947451 -6.06 1.32776e-012 2.48776e-013 -87.3808 -60.5658 -49.8852 -9.96399e-014 -11.08 -9.43749e-015 4.13281 -39.9386 -39.6664 0 -9.82 1.77636e-015 -25.6266 13.3158 3.04012 3.55271e-015 4.05 1.15463e-014 4.81001 3.6896 -19.3119 0 5.19 1.77636e-015 16.2661 -1.27275 -17.5122 
-24.0749 37.7186 60.8643 2.33119 5.17596 -152.277 3.43 3.55223e-013 1.61594e-012 11 -29.0243 6.84883 -1.22302e-012 -18.47 1.42109e-014 -2.60841e-005 44.4803 -0.709628 -1.06581e-014 -17.95 -2.22045e-015 -2.69786 -4.47226 -0.105162 -3.43 -3.44146e-013 -5.0677e-014 -14.9596 -13.7087 -7.54958 2.4869e-014 -18.47 -8.43769e-015 -0.0209655 19.6411 -0.533057 1.06581e-014 -17.95 -4.16143e-012 9.55107 0.28031 -0.0280387 0 4.57 1.85964e-014 4.25543 26.6057 -1.55171 3.55271e-014 6.57 7.10543e-015 3.79968 24.2077 -1.34861 1.06 4.19 1.76 -2.15703 0.685728 -0.494885 5.81 2.01452e-012 2.10415e-013 29.3035 -25.7018 3.6746 -2.6048e-013 -12.08 -1.67423e-013 -2.99446 -58.6641 3.50725 1.42109e-014 -9.82 -2.66454e-015 7.03978 15.9268 -0.989116 -1.06 4.19 1.76 1.30337 0.652797 1.44261 -6.06 1.29541e-012 5.98375e-014 -90.3499 -62.1009 -51.6027 -1.46235e-013 -11.08 1.86567e-013 4.1949 -37.0643 -38.6679 0 -9.82 1.77636e-015 -27.7101 11.7131 2.89949 3.55271e-015 4.05 1.15463e-014 4.86234 3.61377 -18.3259 0 5.19 1.77636e-015 15.7496 -2.47758 -15.788 
